<?xml version="1.0" encoding="utf-8"?>
<!-- Generator: Adobe Illustrator 18.0.0, SVG Export Plug-In . SVG Version: 6.00 Build 0)  -->
<!DOCTYPE svg PUBLIC "-//W3C//DTD SVG 1.1//EN" "http://www.w3.org/Graphics/SVG/1.1/DTD/svg11.dtd">
<svg version="1.1" id="Layer_1" xmlns="http://www.w3.org/2000/svg" xmlns:xlink="http://www.w3.org/1999/xlink" x="0px" y="0px"
	 viewBox="0 0 209 98" enable-background="new 0 0 209 98" xml:space="preserve">
<path fill="#59B7DE" d="M99.9,58.8l-6-10.6c-8.5-2.6-14.3-10.5-14.3-19.4c0-11.2,9.1-20.3,20.3-20.3c5.1,0,10,1.9,13.7,5.4l-2.5,2.7
	c-3.1-2.8-7.1-4.4-11.2-4.4c-9.2,0-16.7,7.5-16.7,16.7c0,7.5,5.1,14.1,12.3,16.1l0.7,0.2l3.6,6.3l3.6-6.3l0.7-0.2
	c2.6-0.7,4.9-2,6.9-3.8l2.5,2.7c-2.2,2-4.9,3.5-7.7,4.4L99.9,58.8z"/>
<path fill="#F47A20" d="M124.9,58.8l-6-10.6c-2.8-0.9-5.5-2.4-7.7-4.4l2.5-2.7c2,1.8,4.4,3.1,6.9,3.8l0.7,0.2l3.6,6.3l3.6-6.3
	l0.7-0.2c7.3-1.9,12.3-8.6,12.3-16.1c0-9.2-7.5-16.7-16.7-16.7c-4.2,0-8.2,1.6-11.2,4.4l-2.5-2.7c3.8-3.5,8.6-5.4,13.7-5.4
	c11.2,0,20.3,9.1,20.3,20.3c0,8.9-5.8,16.8-14.3,19.4L124.9,58.8z"/>
<path fill="#92C63E" d="M112.4,44.8l-1.2-1.1c-4.2-3.8-6.6-9.3-6.6-15c0-5.7,2.4-11.1,6.6-15l1.2-1.1l1.2,1.1
	c4.2,3.9,6.6,9.3,6.6,15c0,5.7-2.4,11.1-6.6,15L112.4,44.8z M112.4,17.7c-2.7,3-4.2,6.9-4.2,11c0,4.1,1.5,8,4.2,11
	c2.7-3,4.2-6.9,4.2-11C116.6,24.7,115.1,20.8,112.4,17.7z"/>
<g>
	<path fill="#FFFFFF" d="M26.6,88.9c-0.5,1.1-1.1,2.1-2.1,2.9c-0.9,0.8-2.1,1.4-3.5,1.9c-1.4,0.5-3.1,0.7-5.1,0.7
		c-2.2,0-4.3-0.4-6.1-1.3C8,92.2,6.4,91,5.1,89.5l3.3-3.2c1,1.1,2.2,2,3.6,2.6c1.4,0.7,2.8,1,4.3,1c4.2,0,6.3-1.5,6.3-4.4
		c0-0.6-0.1-1.1-0.3-1.6c-0.2-0.5-0.6-0.9-1.2-1.3c-0.6-0.4-1.3-0.8-2.1-1.1c-0.9-0.3-1.9-0.7-3.2-1.1c-1.6-0.5-3-0.9-4.2-1.4
		c-1.2-0.5-2.2-1.1-3-1.7c-0.8-0.7-1.4-1.4-1.8-2.4c-0.4-0.9-0.6-2.1-0.6-3.4c0-1.3,0.3-2.5,0.8-3.6c0.5-1.1,1.2-2,2.1-2.7
		c0.9-0.7,2-1.3,3.2-1.7c1.2-0.4,2.6-0.6,3.9-0.6c2.1,0,3.9,0.4,5.5,1.1c1.6,0.7,3.1,1.7,4.4,3.1L23,70.3c-1-1-2-1.7-3.1-2.2
		c-1.1-0.5-2.5-0.7-4-0.7c-1.8,0-3.1,0.4-3.9,1.1c-0.8,0.8-1.2,1.6-1.2,2.7c0,0.5,0.1,1,0.3,1.4c0.2,0.4,0.6,0.8,1,1.2
		c0.5,0.4,1.2,0.7,2.1,1.1c0.9,0.3,2,0.7,3.3,1.1c1.5,0.5,2.9,0.9,4.1,1.4c1.2,0.5,2.2,1.1,3.1,1.8c0.8,0.7,1.5,1.5,1.9,2.5
		c0.5,1,0.7,2.1,0.7,3.5C27.3,86.5,27,87.8,26.6,88.9z"/>
	<path fill="#FFFFFF" d="M50.1,87.4c-0.5,1.5-1.3,2.8-2.2,3.8c-0.9,1-2,1.8-3.3,2.4c-1.3,0.5-2.6,0.8-4.1,0.8c-1.5,0-2.8-0.3-4-0.9
		c-1.2-0.6-2.3-1.4-3.2-2.4c-0.9-1-1.6-2.3-2.1-3.8c-0.5-1.5-0.8-3.1-0.8-4.9c0-1.9,0.3-3.5,0.8-5c0.5-1.5,1.2-2.7,2.2-3.8
		c0.9-1,2-1.8,3.2-2.4c1.2-0.5,2.6-0.8,4-0.8c1.5,0,2.8,0.3,4.1,0.9c1.2,0.6,2.3,1.4,3.2,2.4c0.9,1,1.6,2.3,2.1,3.7
		c0.5,1.5,0.8,3.1,0.8,4.9C50.9,84.2,50.6,85.9,50.1,87.4z M44.8,76.9c-1-1.4-2.5-2.1-4.3-2.1c-1.7,0-3.1,0.7-4,2.1
		c-1,1.4-1.5,3.2-1.5,5.5c0,2.5,0.5,4.5,1.6,5.8c1,1.3,2.4,2,4.1,2c0.8,0,1.6-0.2,2.3-0.6c0.7-0.4,1.3-1,1.8-1.6
		c0.5-0.7,0.9-1.5,1.1-2.4c0.3-0.9,0.4-1.9,0.4-3C46.4,80.1,45.8,78.3,44.8,76.9z"/>
	<path fill="#FFFFFF" d="M69.4,77.6c-0.9-1-1.8-1.7-2.7-2.1c-0.9-0.5-1.8-0.7-2.9-0.7c-1.7,0-3,0.7-3.9,2c-1,1.4-1.4,3.2-1.4,5.6
		c0,1.1,0.1,2.2,0.3,3.1c0.2,0.9,0.6,1.8,1,2.4c0.5,0.7,1,1.2,1.7,1.6c0.7,0.4,1.5,0.6,2.4,0.6c1.1,0,2-0.2,2.7-0.7
		c0.7-0.5,1.6-1.2,2.5-2.1l2.9,2.8c-0.4,0.6-0.9,1.1-1.4,1.6c-0.5,0.5-1.1,1-1.8,1.4c-0.7,0.4-1.4,0.7-2.2,0.9
		c-0.8,0.2-1.7,0.3-2.8,0.3c-1.4,0-2.7-0.3-3.9-0.9c-1.2-0.6-2.3-1.4-3.1-2.4c-0.9-1-1.6-2.3-2.1-3.7c-0.5-1.5-0.8-3.1-0.8-4.9
		c0-1.9,0.3-3.6,0.8-5.1c0.5-1.5,1.2-2.7,2.1-3.8c0.9-1,2-1.8,3.2-2.4c1.2-0.5,2.5-0.8,3.9-0.8c1.7,0,3.2,0.3,4.5,1
		c1.3,0.7,2.5,1.6,3.6,2.9L69.4,77.6z"/>
	<path fill="#FFFFFF" d="M80.8,67.2c-0.6,0.6-1.2,0.9-2,0.9c-0.8,0-1.5-0.3-2.1-0.9c-0.6-0.6-0.9-1.2-0.9-2c0-0.8,0.3-1.5,0.9-2.1
		c0.6-0.6,1.3-0.9,2.1-0.9c0.8,0,1.5,0.3,2,0.9c0.6,0.6,0.9,1.3,0.9,2.1C81.7,65.9,81.4,66.6,80.8,67.2z M76.5,93.9V71h4.5v22.9
		H76.5z"/>
	<path fill="#FFFFFF" d="M99.6,93.9v-2.3c-0.8,0.8-1.7,1.4-2.8,2c-1.1,0.5-2.2,0.8-3.5,0.8c-0.9,0-1.9-0.1-2.8-0.4
		c-0.9-0.3-1.8-0.7-2.6-1.3c-0.8-0.6-1.4-1.4-1.9-2.4c-0.5-1-0.7-2.2-0.7-3.6c0-1.3,0.2-2.4,0.7-3.3c0.5-0.9,1.1-1.7,1.9-2.3
		c0.8-0.6,1.8-1.1,2.9-1.4c1.1-0.3,2.3-0.4,3.6-0.4c2.1,0,3.8,0.3,5.1,0.9v-1.7c0-1.2-0.4-2.2-1.1-2.9c-0.7-0.7-1.8-1-3.2-1
		c-1.2,0-2.3,0.1-3.2,0.3c-0.9,0.2-1.9,0.6-2.8,1.1l-1.7-3.4c1.1-0.7,2.3-1.2,3.5-1.5c1.3-0.3,2.7-0.5,4.3-0.5
		c2.6,0,4.6,0.6,6.2,1.9c1.6,1.3,2.4,3.2,2.4,5.8v15.7H99.6z M99.6,84.1c-0.6-0.3-1.3-0.6-2.2-0.7c-0.8-0.2-1.9-0.3-3.1-0.3
		c-1.5,0-2.6,0.3-3.4,0.9c-0.8,0.6-1.3,1.4-1.3,2.5c0,1.1,0.4,2.1,1.1,2.7c0.7,0.7,1.8,1,3.3,1c1.2,0,2.3-0.3,3.3-0.9
		c1-0.6,1.7-1.3,2.2-2V84.1z"/>
	<path fill="#FFFFFF" d="M109.2,93.9V64.5l4.5-2.4v31.8H109.2z"/>
	<path fill="#FFFFFF" d="M140,93.9h-3.8l-3.1-11.6c-0.2-0.9-0.5-1.8-0.7-2.7c-0.2-0.9-0.4-1.6-0.5-2.2c-0.1,0.6-0.3,1.3-0.5,2.2
		c-0.2,0.9-0.4,1.8-0.7,2.7l-3.1,11.5h-3.8L117.5,71h4.4l2.7,11.1c0.2,0.9,0.5,1.8,0.7,2.7c0.2,1,0.4,1.7,0.5,2.3
		c0.1-0.6,0.3-1.3,0.6-2.3c0.2-0.9,0.5-1.8,0.7-2.7l3.1-11.1h3.6l3.1,11.2c0.2,0.9,0.5,1.8,0.7,2.7c0.2,0.9,0.4,1.7,0.5,2.2
		c0.1-0.6,0.3-1.3,0.5-2.3c0.2-0.9,0.4-1.9,0.6-2.7l2.7-11.1h4.4L140,93.9z"/>
	<path fill="#FFFFFF" d="M161.6,93.9v-2.3c-0.8,0.8-1.7,1.4-2.8,2c-1.1,0.5-2.2,0.8-3.5,0.8c-0.9,0-1.9-0.1-2.8-0.4
		c-0.9-0.3-1.8-0.7-2.6-1.3c-0.8-0.6-1.4-1.4-1.9-2.4c-0.5-1-0.7-2.2-0.7-3.6c0-1.3,0.2-2.4,0.7-3.3c0.5-0.9,1.1-1.7,1.9-2.3
		c0.8-0.6,1.8-1.1,2.9-1.4c1.1-0.3,2.3-0.4,3.6-0.4c2.1,0,3.8,0.3,5.1,0.9v-1.7c0-1.2-0.4-2.2-1.1-2.9c-0.7-0.7-1.8-1-3.2-1
		c-1.2,0-2.3,0.1-3.2,0.3c-0.9,0.2-1.9,0.6-2.8,1.1l-1.7-3.4c1.1-0.7,2.3-1.2,3.5-1.5c1.3-0.3,2.7-0.5,4.3-0.5
		c2.6,0,4.6,0.6,6.2,1.9c1.6,1.3,2.4,3.2,2.4,5.8v15.7H161.6z M161.6,84.1c-0.6-0.3-1.3-0.6-2.2-0.7c-0.8-0.2-1.9-0.3-3.1-0.3
		c-1.5,0-2.6,0.3-3.4,0.9c-0.8,0.6-1.3,1.4-1.3,2.5c0,1.1,0.4,2.1,1.1,2.7c0.7,0.7,1.8,1,3.3,1c1.2,0,2.3-0.3,3.3-0.9
		c1-0.6,1.7-1.3,2.2-2V84.1z"/>
	<path fill="#FFFFFF" d="M183.5,75.8c-0.5-0.3-1-0.5-1.5-0.6c-0.5-0.1-1.2-0.2-1.9-0.2c-1.4,0-2.5,0.5-3.3,1.5
		c-0.8,1-1.2,2.5-1.2,4.4v13.1H171V71h4.5v2.2c0.5-0.8,1.2-1.4,2.2-1.9c0.9-0.5,1.9-0.8,3.1-0.8c0.9,0,1.7,0.1,2.3,0.2
		c0.6,0.2,1.1,0.4,1.6,0.7L183.5,75.8z"/>
	<path fill="#FFFFFF" d="M205.3,83.2c0,0.4-0.1,0.7-0.1,0.9H190c0.1,1.1,0.3,2.1,0.7,2.8c0.3,0.8,0.8,1.4,1.3,1.9
		c0.5,0.5,1.1,0.9,1.7,1.1c0.6,0.2,1.3,0.4,2,0.4c1,0,1.8-0.2,2.6-0.5c0.8-0.3,1.6-0.8,2.3-1.4l2.7,2.9c-1,1-2.2,1.7-3.4,2.2
		c-1.3,0.5-2.7,0.8-4.5,0.8c-1.3,0-2.6-0.3-3.8-0.8c-1.2-0.5-2.3-1.3-3.2-2.3c-0.9-1-1.6-2.3-2.1-3.8c-0.5-1.5-0.8-3.2-0.8-5.1
		c0-1.9,0.2-3.7,0.7-5.1c0.5-1.5,1.2-2.7,2.1-3.7c0.9-1,1.9-1.8,3.2-2.3c1.2-0.5,2.6-0.8,4.1-0.8c1.6,0,3,0.3,4.3,0.9
		c1.2,0.6,2.2,1.4,3,2.5c0.8,1,1.4,2.3,1.8,3.7c0.4,1.4,0.6,2.9,0.6,4.4C205.3,82.4,205.3,82.8,205.3,83.2z M200.4,78.1
		c-0.2-0.7-0.5-1.3-1-1.8c-0.4-0.5-1-0.9-1.6-1.2c-0.7-0.3-1.4-0.5-2.4-0.5c-1.5,0-2.7,0.5-3.6,1.5c-0.9,1-1.4,2.4-1.6,4.3h10.6
		C200.7,79.6,200.6,78.8,200.4,78.1z"/>
</g>
</svg>
