<?xml version="1.0" encoding="UTF-8" standalone="no"?>
<!-- Generator: Adobe Illustrator 18.0.0, SVG Export Plug-In . SVG Version: 6.00 Build 0)  -->

<svg
   xmlns:dc="http://purl.org/dc/elements/1.1/"
   xmlns:cc="http://creativecommons.org/ns#"
   xmlns:rdf="http://www.w3.org/1999/02/22-rdf-syntax-ns#"
   xmlns:svg="http://www.w3.org/2000/svg"
   xmlns="http://www.w3.org/2000/svg"
   xmlns:sodipodi="http://sodipodi.sourceforge.net/DTD/sodipodi-0.dtd"
   xmlns:inkscape="http://www.inkscape.org/namespaces/inkscape"
   version="1.1"
   id="Layer_1"
   x="0px"
   y="0px"
   viewBox="0 0 1080 1080"
   enable-background="new 0 0 209 98"
   xml:space="preserve"
   inkscape:version="0.48.5 r10040"
   width="100%"
   height="100%"
   sodipodi:docname="swlogoNoTitle.svg"
   inkscape:export-filename="/Users/acoleman/meteor/social-profiles/public/images/favicons/mstile-310x310.png"
   inkscape:export-xdpi="25.83"
   inkscape:export-ydpi="25.83"><metadata
     id="metadata3091"><rdf:RDF><cc:Work
         rdf:about=""><dc:format>image/svg+xml</dc:format><dc:type
           rdf:resource="http://purl.org/dc/dcmitype/StillImage" /><dc:title></dc:title></cc:Work></rdf:RDF></metadata><defs
     id="defs3089" /><sodipodi:namedview
     pagecolor="#ffffff"
     bordercolor="#666666"
     borderopacity="1"
     objecttolerance="10"
     gridtolerance="10"
     guidetolerance="10"
     inkscape:pageopacity="0"
     inkscape:pageshadow="2"
     inkscape:window-width="952"
     inkscape:window-height="748"
     id="namedview3087"
     showgrid="false"
     inkscape:zoom="0.50141301"
     inkscape:cx="363.39048"
     inkscape:cy="589.51717"
     inkscape:window-x="928"
     inkscape:window-y="0"
     inkscape:window-maximized="0"
     inkscape:current-layer="Layer_1" /><path
     d="M 342.45953,861.31732 247.74241,693.98381 C 113.55988,652.93971 22,528.22879 22,387.73178 22,210.92644 165.65425,67.272161 342.45953,67.272161 c 80.50958,0 157.8619,29.993756 216.27081,85.245429 l -39.46553,42.62268 C 470.32768,150.93894 407.1829,125.68101 342.45953,125.68101 c -145.23285,0 -263.629253,118.39645 -263.629253,263.62935 0,118.3964 80.509503,222.58525 194.170083,254.15759 l 11.05033,3.15729 56.83024,99.45287 56.83034,-99.45287 11.05028,-3.15729 c 41.04409,-11.05034 77.35237,-31.57234 108.92468,-59.9875 l 39.46552,42.62269 c -34.72964,31.57238 -77.35236,55.25167 -121.5537,69.45925 l -93.13852,165.75493 z"
     id="path3059"
     inkscape:connector-curvature="0"
     style="fill:#59b7de" /><path
     d="M 737.11427,861.31732 642.39708,693.98381 C 598.19584,679.77616 555.5731,656.09688 520.84347,624.52455 l 39.46542,-42.62267 c 31.57242,28.41509 69.45928,48.93713 108.92477,59.98748 l 11.05029,3.15717 56.83032,99.45299 56.83025,-99.45299 11.05034,-3.15717 c 115.23916,-29.99375 194.16993,-135.76119 194.16993,-254.15758 0,-145.23296 -118.39628,-263.62935 -263.62917,-263.62935 -66.30196,0 -129.44674,25.25792 -176.80528,69.45923 l -39.46553,-42.62272 c 59.98756,-55.251647 135.76126,-85.245409 216.27081,-85.245409 176.80528,0 320.45938,143.654309 320.45938,320.459589 0,140.49703 -91.55966,265.20788 -225.74228,306.25198 l -93.13845,168.91222 z"
     id="path3061"
     inkscape:connector-curvature="0"
     style="fill:#f47a20" /><path
     d="M 539.78693,640.31072 520.84347,622.9459 C 454.54144,562.95841 416.65465,476.13441 416.65465,386.15312 c 0,-89.98128 37.88679,-175.22668 104.18882,-236.79277 l 18.94346,-17.3648 18.94341,17.3648 c 66.30193,61.56609 104.1888,146.81149 104.1888,236.79277 0,89.98129 -37.88687,175.22664 -104.1888,236.79278 l -18.94341,17.36482 z m 0,-427.80565 c -42.62273,47.35856 -66.30201,108.9247 -66.30201,173.64805 0,64.72337 23.67928,126.2895 66.30201,173.64807 42.62266,-47.35857 66.30195,-108.9247 66.30195,-173.64807 0,-63.1447 -23.67929,-124.7109 -66.30195,-173.64805 z"
     id="path3063"
     inkscape:connector-curvature="0"
     style="fill:#92c63e" /></svg>